solid OpenSCAD_Model
  facet normal 0.975414 0.102518 0.195083
    outer loop
      vertex 4.89074 1.03956 0
      vertex 1 0 20
      vertex 5 0 0
    endloop
  endfacet
  facet normal 0.975414 0.102518 0.195083
    outer loop
      vertex 4.89074 1.03956 0
      vertex 0.978148 0.207912 20
      vertex 1 0 20
    endloop
  endfacet
  facet normal 0.932783 0.30308 0.195083
    outer loop
      vertex 4.56773 2.03368 0
      vertex 0.978148 0.207912 20
      vertex 4.89074 1.03956 0
    endloop
  endfacet
  facet normal 0.932782 0.303083 0.195083
    outer loop
      vertex 4.56773 2.03368 0
      vertex 0.913545 0.406737 20
      vertex 0.978148 0.207912 20
    endloop
  endfacet
  facet normal 0.849385 0.490396 0.195083
    outer loop
      vertex 4.04508 2.93893 0
      vertex 0.913545 0.406737 20
      vertex 4.56773 2.03368 0
    endloop
  endfacet
  facet normal 0.849387 0.490393 0.195083
    outer loop
      vertex 4.04508 2.93893 0
      vertex 0.809017 0.587785 20
      vertex 0.913545 0.406737 20
    endloop
  endfacet
  facet normal 0.728864 0.656277 0.195083
    outer loop
      vertex 3.34565 3.71572 0
      vertex 0.809017 0.587785 20
      vertex 4.04508 2.93893 0
    endloop
  endfacet
  facet normal 0.728868 0.656272 0.195082
    outer loop
      vertex 3.34565 3.71572 0
      vertex 0.669131 0.743145 20
      vertex 0.809017 0.587785 20
    endloop
  endfacet
  facet normal 0.576498 0.793469 0.195083
    outer loop
      vertex 2.5 4.33013 0
      vertex 0.669131 0.743145 20
      vertex 3.34565 3.71572 0
    endloop
  endfacet
  facet normal 0.576489 0.793475 0.195083
    outer loop
      vertex 2.5 4.33013 0
      vertex 0.5 0.866025 20
      vertex 0.669131 0.743145 20
    endloop
  endfacet
  facet normal 0.398916 0.895996 0.195083
    outer loop
      vertex 1.54508 4.75528 0
      vertex 0.5 0.866025 20
      vertex 2.5 4.33013 0
    endloop
  endfacet
  facet normal 0.398925 0.895992 0.195082
    outer loop
      vertex 1.54508 4.75528 0
      vertex 0.309017 0.951057 20
      vertex 0.5 0.866025 20
    endloop
  endfacet
  facet normal 0.203921 0.959353 0.195083
    outer loop
      vertex 0.522642 4.97261 0
      vertex 0.309017 0.951057 20
      vertex 1.54508 4.75528 0
    endloop
  endfacet
  facet normal 0.203915 0.959355 0.195083
    outer loop
      vertex 0.522642 4.97261 0
      vertex 0.104528 0.994522 20
      vertex 0.309017 0.951057 20
    endloop
  endfacet
  facet normal -0 0.980787 0.195083
    outer loop
      vertex -0.522642 4.97261 0
      vertex 0.104528 0.994522 20
      vertex 0.522642 4.97261 0
    endloop
  endfacet
  facet normal 0 0.980787 0.195083
    outer loop
      vertex -0.522642 4.97261 0
      vertex -0.104528 0.994522 20
      vertex 0.104528 0.994522 20
    endloop
  endfacet
  facet normal -0.203921 0.959353 0.195083
    outer loop
      vertex -1.54508 4.75528 0
      vertex -0.104528 0.994522 20
      vertex -0.522642 4.97261 0
    endloop
  endfacet
  facet normal -0.203915 0.959355 0.195083
    outer loop
      vertex -1.54508 4.75528 0
      vertex -0.309017 0.951057 20
      vertex -0.104528 0.994522 20
    endloop
  endfacet
  facet normal -0.398916 0.895996 0.195083
    outer loop
      vertex -2.5 4.33013 0
      vertex -0.309017 0.951057 20
      vertex -1.54508 4.75528 0
    endloop
  endfacet
  facet normal -0.398925 0.895992 0.195083
    outer loop
      vertex -2.5 4.33013 0
      vertex -0.5 0.866025 20
      vertex -0.309017 0.951057 20
    endloop
  endfacet
  facet normal -0.576498 0.793469 0.195083
    outer loop
      vertex -3.34565 3.71572 0
      vertex -0.5 0.866025 20
      vertex -2.5 4.33013 0
    endloop
  endfacet
  facet normal -0.576489 0.793475 0.195082
    outer loop
      vertex -3.34565 3.71572 0
      vertex -0.669131 0.743145 20
      vertex -0.5 0.866025 20
    endloop
  endfacet
  facet normal -0.728864 0.656277 0.195083
    outer loop
      vertex -4.04508 2.93893 0
      vertex -0.669131 0.743145 20
      vertex -3.34565 3.71572 0
    endloop
  endfacet
  facet normal -0.728868 0.656272 0.195083
    outer loop
      vertex -4.04508 2.93893 0
      vertex -0.809017 0.587785 20
      vertex -0.669131 0.743145 20
    endloop
  endfacet
  facet normal -0.849385 0.490396 0.195083
    outer loop
      vertex -4.56773 2.03368 0
      vertex -0.809017 0.587785 20
      vertex -4.04508 2.93893 0
    endloop
  endfacet
  facet normal -0.849386 0.490393 0.195083
    outer loop
      vertex -4.56773 2.03368 0
      vertex -0.913545 0.406737 20
      vertex -0.809017 0.587785 20
    endloop
  endfacet
  facet normal -0.932783 0.30308 0.195083
    outer loop
      vertex -4.89074 1.03956 0
      vertex -0.913545 0.406737 20
      vertex -4.56773 2.03368 0
    endloop
  endfacet
  facet normal -0.932782 0.303083 0.195083
    outer loop
      vertex -4.89074 1.03956 0
      vertex -0.978148 0.207912 20
      vertex -0.913545 0.406737 20
    endloop
  endfacet
  facet normal -0.975414 0.102518 0.195083
    outer loop
      vertex -5 -0 0
      vertex -0.978148 0.207912 20
      vertex -4.89074 1.03956 0
    endloop
  endfacet
  facet normal -0.975414 0.102518 0.195083
    outer loop
      vertex -5 -0 0
      vertex -1 -0 20
      vertex -0.978148 0.207912 20
    endloop
  endfacet
  facet normal -0.975414 -0.102518 0.195083
    outer loop
      vertex -4.89074 -1.03956 0
      vertex -1 -0 20
      vertex -5 -0 0
    endloop
  endfacet
  facet normal -0.975414 -0.102518 0.195083
    outer loop
      vertex -4.89074 -1.03956 0
      vertex -0.978148 -0.207912 20
      vertex -1 -0 20
    endloop
  endfacet
  facet normal -0.932783 -0.30308 0.195083
    outer loop
      vertex -4.56773 -2.03368 0
      vertex -0.978148 -0.207912 20
      vertex -4.89074 -1.03956 0
    endloop
  endfacet
  facet normal -0.932782 -0.303083 0.195083
    outer loop
      vertex -4.56773 -2.03368 0
      vertex -0.913545 -0.406737 20
      vertex -0.978148 -0.207912 20
    endloop
  endfacet
  facet normal -0.849385 -0.490396 0.195083
    outer loop
      vertex -4.04508 -2.93893 0
      vertex -0.913545 -0.406737 20
      vertex -4.56773 -2.03368 0
    endloop
  endfacet
  facet normal -0.849387 -0.490393 0.195083
    outer loop
      vertex -4.04508 -2.93893 0
      vertex -0.809017 -0.587785 20
      vertex -0.913545 -0.406737 20
    endloop
  endfacet
  facet normal -0.728864 -0.656277 0.195083
    outer loop
      vertex -3.34565 -3.71572 0
      vertex -0.809017 -0.587785 20
      vertex -4.04508 -2.93893 0
    endloop
  endfacet
  facet normal -0.728868 -0.656272 0.195082
    outer loop
      vertex -3.34565 -3.71572 0
      vertex -0.669131 -0.743145 20
      vertex -0.809017 -0.587785 20
    endloop
  endfacet
  facet normal -0.576498 -0.793469 0.195083
    outer loop
      vertex -2.5 -4.33013 0
      vertex -0.669131 -0.743145 20
      vertex -3.34565 -3.71572 0
    endloop
  endfacet
  facet normal -0.576489 -0.793475 0.195083
    outer loop
      vertex -2.5 -4.33013 0
      vertex -0.5 -0.866025 20
      vertex -0.669131 -0.743145 20
    endloop
  endfacet
  facet normal -0.398916 -0.895996 0.195083
    outer loop
      vertex -1.54508 -4.75528 0
      vertex -0.5 -0.866025 20
      vertex -2.5 -4.33013 0
    endloop
  endfacet
  facet normal -0.398925 -0.895992 0.195082
    outer loop
      vertex -1.54508 -4.75528 0
      vertex -0.309017 -0.951057 20
      vertex -0.5 -0.866025 20
    endloop
  endfacet
  facet normal -0.203921 -0.959353 0.195083
    outer loop
      vertex -0.522642 -4.97261 0
      vertex -0.309017 -0.951057 20
      vertex -1.54508 -4.75528 0
    endloop
  endfacet
  facet normal -0.203915 -0.959355 0.195083
    outer loop
      vertex -0.522642 -4.97261 0
      vertex -0.104528 -0.994522 20
      vertex -0.309017 -0.951057 20
    endloop
  endfacet
  facet normal 0 -0.980787 0.195083
    outer loop
      vertex 0.522642 -4.97261 0
      vertex -0.104528 -0.994522 20
      vertex -0.522642 -4.97261 0
    endloop
  endfacet
  facet normal 0 -0.980787 0.195083
    outer loop
      vertex 0.522642 -4.97261 0
      vertex 0.104528 -0.994522 20
      vertex -0.104528 -0.994522 20
    endloop
  endfacet
  facet normal 0.203921 -0.959353 0.195083
    outer loop
      vertex 1.54508 -4.75528 0
      vertex 0.104528 -0.994522 20
      vertex 0.522642 -4.97261 0
    endloop
  endfacet
  facet normal 0.203915 -0.959355 0.195083
    outer loop
      vertex 1.54508 -4.75528 0
      vertex 0.309017 -0.951057 20
      vertex 0.104528 -0.994522 20
    endloop
  endfacet
  facet normal 0.398916 -0.895996 0.195083
    outer loop
      vertex 2.5 -4.33013 0
      vertex 0.309017 -0.951057 20
      vertex 1.54508 -4.75528 0
    endloop
  endfacet
  facet normal 0.398925 -0.895992 0.195083
    outer loop
      vertex 2.5 -4.33013 0
      vertex 0.5 -0.866025 20
      vertex 0.309017 -0.951057 20
    endloop
  endfacet
  facet normal 0.576498 -0.793469 0.195083
    outer loop
      vertex 3.34565 -3.71572 0
      vertex 0.5 -0.866025 20
      vertex 2.5 -4.33013 0
    endloop
  endfacet
  facet normal 0.576489 -0.793475 0.195082
    outer loop
      vertex 3.34565 -3.71572 0
      vertex 0.669131 -0.743145 20
      vertex 0.5 -0.866025 20
    endloop
  endfacet
  facet normal 0.728864 -0.656277 0.195083
    outer loop
      vertex 4.04508 -2.93893 0
      vertex 0.669131 -0.743145 20
      vertex 3.34565 -3.71572 0
    endloop
  endfacet
  facet normal 0.728868 -0.656272 0.195083
    outer loop
      vertex 4.04508 -2.93893 0
      vertex 0.809017 -0.587785 20
      vertex 0.669131 -0.743145 20
    endloop
  endfacet
  facet normal 0.849385 -0.490396 0.195083
    outer loop
      vertex 4.56773 -2.03368 0
      vertex 0.809017 -0.587785 20
      vertex 4.04508 -2.93893 0
    endloop
  endfacet
  facet normal 0.849386 -0.490393 0.195083
    outer loop
      vertex 4.56773 -2.03368 0
      vertex 0.913545 -0.406737 20
      vertex 0.809017 -0.587785 20
    endloop
  endfacet
  facet normal 0.932783 -0.30308 0.195083
    outer loop
      vertex 4.89074 -1.03956 0
      vertex 0.913545 -0.406737 20
      vertex 4.56773 -2.03368 0
    endloop
  endfacet
  facet normal 0.932782 -0.303083 0.195083
    outer loop
      vertex 4.89074 -1.03956 0
      vertex 0.978148 -0.207912 20
      vertex 0.913545 -0.406737 20
    endloop
  endfacet
  facet normal 0.975414 -0.102518 0.195083
    outer loop
      vertex 5 0 0
      vertex 0.978148 -0.207912 20
      vertex 4.89074 -1.03956 0
    endloop
  endfacet
  facet normal 0.975414 -0.102518 0.195083
    outer loop
      vertex 5 0 0
      vertex 1 0 20
      vertex 0.978148 -0.207912 20
    endloop
  endfacet
  facet normal 0 0 -1
    outer loop
      vertex 4.89074 -1.03956 0
      vertex 4.89074 1.03956 0
      vertex 5 0 0
    endloop
  endfacet
  facet normal 0 0 -1
    outer loop
      vertex 4.56773 -2.03368 0
      vertex 4.89074 1.03956 0
      vertex 4.89074 -1.03956 0
    endloop
  endfacet
  facet normal 0 0 -1
    outer loop
      vertex 4.56773 -2.03368 0
      vertex 4.56773 2.03368 0
      vertex 4.89074 1.03956 0
    endloop
  endfacet
  facet normal 0 0 -1
    outer loop
      vertex 4.04508 -2.93893 0
      vertex 4.56773 2.03368 0
      vertex 4.56773 -2.03368 0
    endloop
  endfacet
  facet normal 0 0 -1
    outer loop
      vertex 4.04508 -2.93893 0
      vertex 4.04508 2.93893 0
      vertex 4.56773 2.03368 0
    endloop
  endfacet
  facet normal 0 0 -1
    outer loop
      vertex 3.34565 -3.71572 0
      vertex 4.04508 2.93893 0
      vertex 4.04508 -2.93893 0
    endloop
  endfacet
  facet normal 0 0 -1
    outer loop
      vertex 3.34565 -3.71572 0
      vertex 3.34565 3.71572 0
      vertex 4.04508 2.93893 0
    endloop
  endfacet
  facet normal 0 0 -1
    outer loop
      vertex 2.5 -4.33013 0
      vertex 3.34565 3.71572 0
      vertex 3.34565 -3.71572 0
    endloop
  endfacet
  facet normal 0 0 -1
    outer loop
      vertex 2.5 -4.33013 0
      vertex 2.5 4.33013 0
      vertex 3.34565 3.71572 0
    endloop
  endfacet
  facet normal 0 0 -1
    outer loop
      vertex 1.54508 -4.75528 0
      vertex 2.5 4.33013 0
      vertex 2.5 -4.33013 0
    endloop
  endfacet
  facet normal 0 0 -1
    outer loop
      vertex 1.54508 -4.75528 0
      vertex 1.54508 4.75528 0
      vertex 2.5 4.33013 0
    endloop
  endfacet
  facet normal 0 0 -1
    outer loop
      vertex 0.522642 -4.97261 0
      vertex 1.54508 4.75528 0
      vertex 1.54508 -4.75528 0
    endloop
  endfacet
  facet normal 0 0 -1
    outer loop
      vertex 0.522642 -4.97261 0
      vertex 0.522642 4.97261 0
      vertex 1.54508 4.75528 0
    endloop
  endfacet
  facet normal 0 0 -1
    outer loop
      vertex -0.522642 -4.97261 0
      vertex 0.522642 4.97261 0
      vertex 0.522642 -4.97261 0
    endloop
  endfacet
  facet normal 0 0 -1
    outer loop
      vertex -0.522642 -4.97261 0
      vertex -0.522642 4.97261 0
      vertex 0.522642 4.97261 0
    endloop
  endfacet
  facet normal 0 0 -1
    outer loop
      vertex -1.54508 -4.75528 0
      vertex -0.522642 4.97261 0
      vertex -0.522642 -4.97261 0
    endloop
  endfacet
  facet normal 0 0 -1
    outer loop
      vertex -1.54508 -4.75528 0
      vertex -1.54508 4.75528 0
      vertex -0.522642 4.97261 0
    endloop
  endfacet
  facet normal 0 0 -1
    outer loop
      vertex -2.5 -4.33013 0
      vertex -1.54508 4.75528 0
      vertex -1.54508 -4.75528 0
    endloop
  endfacet
  facet normal 0 0 -1
    outer loop
      vertex -2.5 -4.33013 0
      vertex -2.5 4.33013 0
      vertex -1.54508 4.75528 0
    endloop
  endfacet
  facet normal 0 0 -1
    outer loop
      vertex -3.34565 -3.71572 0
      vertex -2.5 4.33013 0
      vertex -2.5 -4.33013 0
    endloop
  endfacet
  facet normal 0 0 -1
    outer loop
      vertex -3.34565 -3.71572 0
      vertex -3.34565 3.71572 0
      vertex -2.5 4.33013 0
    endloop
  endfacet
  facet normal 0 0 -1
    outer loop
      vertex -4.04508 -2.93893 0
      vertex -3.34565 3.71572 0
      vertex -3.34565 -3.71572 0
    endloop
  endfacet
  facet normal 0 0 -1
    outer loop
      vertex -4.04508 -2.93893 0
      vertex -4.04508 2.93893 0
      vertex -3.34565 3.71572 0
    endloop
  endfacet
  facet normal 0 0 -1
    outer loop
      vertex -4.56773 -2.03368 0
      vertex -4.04508 2.93893 0
      vertex -4.04508 -2.93893 0
    endloop
  endfacet
  facet normal 0 0 -1
    outer loop
      vertex -4.56773 -2.03368 0
      vertex -4.56773 2.03368 0
      vertex -4.04508 2.93893 0
    endloop
  endfacet
  facet normal 0 0 -1
    outer loop
      vertex -4.89074 -1.03956 0
      vertex -4.56773 2.03368 0
      vertex -4.56773 -2.03368 0
    endloop
  endfacet
  facet normal 0 0 -1
    outer loop
      vertex -4.89074 -1.03956 0
      vertex -4.89074 1.03956 0
      vertex -4.56773 2.03368 0
    endloop
  endfacet
  facet normal 0 -0 -1
    outer loop
      vertex -4.89074 1.03956 0
      vertex -4.89074 -1.03956 0
      vertex -5 -0 0
    endloop
  endfacet
  facet normal 0 0 1
    outer loop
      vertex 0.978148 0.207912 20
      vertex 0.978148 -0.207912 20
      vertex 1 0 20
    endloop
  endfacet
  facet normal 0 0 1
    outer loop
      vertex 0.913545 0.406737 20
      vertex 0.978148 -0.207912 20
      vertex 0.978148 0.207912 20
    endloop
  endfacet
  facet normal 0 0 1
    outer loop
      vertex 0.913545 0.406737 20
      vertex 0.913545 -0.406737 20
      vertex 0.978148 -0.207912 20
    endloop
  endfacet
  facet normal 0 0 1
    outer loop
      vertex 0.809017 0.587785 20
      vertex 0.913545 -0.406737 20
      vertex 0.913545 0.406737 20
    endloop
  endfacet
  facet normal 0 0 1
    outer loop
      vertex 0.809017 0.587785 20
      vertex 0.809017 -0.587785 20
      vertex 0.913545 -0.406737 20
    endloop
  endfacet
  facet normal 0 0 1
    outer loop
      vertex 0.669131 0.743145 20
      vertex 0.809017 -0.587785 20
      vertex 0.809017 0.587785 20
    endloop
  endfacet
  facet normal 0 0 1
    outer loop
      vertex 0.669131 0.743145 20
      vertex 0.669131 -0.743145 20
      vertex 0.809017 -0.587785 20
    endloop
  endfacet
  facet normal 0 0 1
    outer loop
      vertex 0.5 0.866025 20
      vertex 0.669131 -0.743145 20
      vertex 0.669131 0.743145 20
    endloop
  endfacet
  facet normal 0 0 1
    outer loop
      vertex 0.5 0.866025 20
      vertex 0.5 -0.866025 20
      vertex 0.669131 -0.743145 20
    endloop
  endfacet
  facet normal 0 0 1
    outer loop
      vertex 0.309017 0.951057 20
      vertex 0.5 -0.866025 20
      vertex 0.5 0.866025 20
    endloop
  endfacet
  facet normal 0 0 1
    outer loop
      vertex 0.309017 0.951057 20
      vertex 0.309017 -0.951057 20
      vertex 0.5 -0.866025 20
    endloop
  endfacet
  facet normal 0 0 1
    outer loop
      vertex 0.104528 0.994522 20
      vertex 0.309017 -0.951057 20
      vertex 0.309017 0.951057 20
    endloop
  endfacet
  facet normal 0 0 1
    outer loop
      vertex 0.104528 0.994522 20
      vertex 0.104528 -0.994522 20
      vertex 0.309017 -0.951057 20
    endloop
  endfacet
  facet normal -0 0 1
    outer loop
      vertex -0.104528 0.994522 20
      vertex 0.104528 -0.994522 20
      vertex 0.104528 0.994522 20
    endloop
  endfacet
  facet normal 0 0 1
    outer loop
      vertex -0.104528 0.994522 20
      vertex -0.104528 -0.994522 20
      vertex 0.104528 -0.994522 20
    endloop
  endfacet
  facet normal -0 0 1
    outer loop
      vertex -0.309017 0.951057 20
      vertex -0.104528 -0.994522 20
      vertex -0.104528 0.994522 20
    endloop
  endfacet
  facet normal 0 0 1
    outer loop
      vertex -0.309017 0.951057 20
      vertex -0.309017 -0.951057 20
      vertex -0.104528 -0.994522 20
    endloop
  endfacet
  facet normal -0 0 1
    outer loop
      vertex -0.5 0.866025 20
      vertex -0.309017 -0.951057 20
      vertex -0.309017 0.951057 20
    endloop
  endfacet
  facet normal 0 0 1
    outer loop
      vertex -0.5 0.866025 20
      vertex -0.5 -0.866025 20
      vertex -0.309017 -0.951057 20
    endloop
  endfacet
  facet normal -0 0 1
    outer loop
      vertex -0.669131 0.743145 20
      vertex -0.5 -0.866025 20
      vertex -0.5 0.866025 20
    endloop
  endfacet
  facet normal 0 0 1
    outer loop
      vertex -0.669131 0.743145 20
      vertex -0.669131 -0.743145 20
      vertex -0.5 -0.866025 20
    endloop
  endfacet
  facet normal -0 0 1
    outer loop
      vertex -0.809017 0.587785 20
      vertex -0.669131 -0.743145 20
      vertex -0.669131 0.743145 20
    endloop
  endfacet
  facet normal 0 0 1
    outer loop
      vertex -0.809017 0.587785 20
      vertex -0.809017 -0.587785 20
      vertex -0.669131 -0.743145 20
    endloop
  endfacet
  facet normal -0 0 1
    outer loop
      vertex -0.913545 0.406737 20
      vertex -0.809017 -0.587785 20
      vertex -0.809017 0.587785 20
    endloop
  endfacet
  facet normal 0 0 1
    outer loop
      vertex -0.913545 0.406737 20
      vertex -0.913545 -0.406737 20
      vertex -0.809017 -0.587785 20
    endloop
  endfacet
  facet normal -0 0 1
    outer loop
      vertex -0.978148 0.207912 20
      vertex -0.913545 -0.406737 20
      vertex -0.913545 0.406737 20
    endloop
  endfacet
  facet normal 0 0 1
    outer loop
      vertex -0.978148 0.207912 20
      vertex -0.978148 -0.207912 20
      vertex -0.913545 -0.406737 20
    endloop
  endfacet
  facet normal 0 -0 1
    outer loop
      vertex -0.978148 -0.207912 20
      vertex -0.978148 0.207912 20
      vertex -1 -0 20
    endloop
  endfacet
endsolid OpenSCAD_Model
